<?xml version="1.0" encoding="UTF-8"?>
<svg id="Capa_1" data-name="Capa 1" xmlns="http://www.w3.org/2000/svg" viewBox="0 0 3840 2160">
  <defs>
    <style>
      .cls-1 {
        fill: #fff;
      }
    </style>
  </defs>
  <g>
    <path class="cls-1" d="M3216.03,657.77c44.29,0,84.25,6.01,117.78,18.16,33.53,12.16,61.34,28.64,83.41,49.6s38.7,45.41,49.74,73.07c11.04,27.8,16.63,57.28,16.63,88.58h-71.82c0-29.2-5.31-54.49-16.07-75.73-10.76-21.38-25.29-38.7-43.73-52.25-18.44-13.55-39.4-23.47-63.01-29.9-23.61-6.43-47.92-9.64-72.93-9.64-38.28,0-70.56,5.17-96.69,15.51-26.13,10.34-46.95,23.61-62.45,39.96-15.51,16.35-26.13,34.51-32,54.49-5.87,19.98-6.99,39.82-3.35,59.8,4.47,24.87,14.67,44.85,31.02,59.8,16.21,14.95,36.05,27.25,59.66,36.89,23.61,9.64,49.6,17.46,77.96,23.47,28.36,6.01,57.28,12.43,86.77,19.14,29.48,6.71,57.98,14.81,85.65,24.03,27.66,9.22,52.11,21.66,73.49,37.3,21.38,15.65,38.56,35.77,51.42,60.36,12.85,24.59,19.28,55.33,19.28,92.35,0,71.12-25.43,126.31-76.29,165.43-50.86,39.12-122.39,58.68-214.47,58.68-41.22,0-79.64-5.17-114.99-15.51-35.35-10.34-65.95-25.99-91.79-46.95-25.85-20.96-45.83-46.95-60.22-77.96-14.39-31.02-21.52-67.34-21.52-109.4h72.93l.14-.28c2.93,34.09,10.9,63.15,23.75,87.04,12.85,23.89,29.48,43.17,49.74,58.12,20.26,14.95,43.73,25.85,70.14,32.55,26.55,6.71,54.91,10.2,85.09,10.2,35.35,0,65.95-4.33,91.79-12.85s46.81-20.12,63.01-34.65,28.22-31.44,35.91-50.72c7.68-19.28,11.6-39.54,11.6-60.78,0-29.9-6.99-54.07-20.96-72.51-13.97-18.44-32.27-33.67-54.77-45.41-22.49-11.74-48.34-21.1-77.4-28.22-29.06-7.13-58.96-13.97-89.56-20.82-30.6-6.71-60.5-14.81-89.56-24.03-29.06-9.22-54.91-21.66-77.4-37.3-22.49-15.65-40.66-35.77-54.77-60.36-13.97-24.59-20.96-55.61-20.96-93.33,0-26.27,5.73-51.98,17.19-76.85,11.46-24.87,28.36-46.95,50.86-66.23,22.49-19.14,50.72-34.51,84.53-45.83,33.95-11.32,72.93-17.05,117.22-17.05M3216.03,639.77c-45.79,0-87.15,6.05-122.92,17.97-35.76,11.97-66.21,28.52-90.5,49.2-.02.01-.03.03-.05.04-24.29,20.82-42.97,45.17-55.49,72.36-12.5,27.13-18.84,55.52-18.84,84.38,0,40.61,7.84,75.01,23.31,102.22.01.02.02.04.04.07,15.44,26.91,35.66,49.17,60.1,66.18,23.84,16.58,51.5,29.93,82.24,39.69,30.27,9.6,60.92,17.83,91.1,24.45,36.66,8.2,64.16,14.59,89.17,20.73,27.78,6.81,52.46,15.79,73.36,26.7,19.97,10.42,36.38,23.99,48.75,40.32,11.48,15.16,17.31,35.9,17.31,61.64,0,18.73-3.47,36.94-10.32,54.11-6.59,16.53-17.08,31.32-31.2,43.98-14.38,12.89-33.44,23.31-56.63,30.96-24.05,7.93-53.03,11.95-86.16,11.95-28.19,0-55.33-3.25-80.68-9.65-24.04-6.11-45.53-16.06-63.86-29.59-18.17-13.41-33.16-30.96-44.58-52.17-11.67-21.7-18.97-48.64-21.67-80.06-.69-8.04-6.64-14.63-14.57-16.14-1.13-.21-2.26-.32-3.37-.32s-2.13.1-3.16.28h-69.91c-9.94,0-18,8.06-18,18,0,44.46,7.8,83.81,23.19,116.98,15.54,33.5,37.48,61.89,65.21,84.37,27.59,22.37,60.59,39.28,98.08,50.24,36.83,10.77,77.21,16.23,120.04,16.23,47.43,0,90.31-5.15,127.44-15.31,37.86-10.36,70.83-26.21,98-47.11,55.28-42.52,83.31-102.98,83.31-179.69,0-39.74-7.18-73.62-21.33-100.69-14.05-26.88-33.14-49.27-56.74-66.54-22.82-16.71-49.21-30.12-78.43-39.86-29.07-9.69-58.45-17.93-87.35-24.51-32.85-7.47-61.32-13.75-87.03-19.2-27.18-5.76-52.38-13.34-74.89-22.53-21.42-8.75-39.68-20-54.26-33.45-.02-.02-.04-.03-.06-.05-13.3-12.16-21.62-28.42-25.45-49.7-3.15-17.32-2.2-34.17,2.91-51.54,5.12-17.43,14.21-32.87,27.78-47.17,13.55-14.28,32.4-26.26,56.02-35.61,23.89-9.45,54.19-14.25,90.06-14.25,23.3,0,46.24,3.03,68.21,9.01,21.38,5.82,40.59,14.92,57.08,27.04,16.27,11.96,28.81,26.95,38.31,45.84,9.39,18.54,14.15,41.29,14.15,67.64,0,9.94,8.06,18,18,18h71.82c9.94,0,18-8.06,18-18,0-33.27-6.02-65.31-17.9-95.22-12-30.07-30.19-56.81-54.08-79.49-23.7-22.5-53.87-40.49-89.67-53.47-35.22-12.77-76.91-19.24-123.92-19.24h0Z"/>
    <path class="cls-1" d="M1684.43,276.76c297.14,0,556.52,161.3,695.42,401.13h547.79v61.9h-190.72v.84h-61.34v705.72h-75.17v-705.72h-187.64c48.06,103.11,75.03,218.1,75.03,339.38,0,443.61-359.64,803.24-803.24,803.24-362.57,0-668.97-240.32-768.87-570.33-8.94,13.41-19.14,26.13-30.6,38-18.44,19.84-38.42,35.77-60.08,47.78-21.66,12.16-44.43,21.52-68.32,28.22-23.89,6.71-48.62,11.32-74.33,13.83-25.71,2.52-51.84,3.77-78.24,3.77h-270.91v-765.52h270.77c22.08,0,43.73.42,64.97,1.54,21.24.98,42.2,3.49,62.73,7.41,20.54,3.91,40.66,9.78,60.08,17.6s38.42,18.16,56.73,30.88c26.41,18.44,48.06,40.94,64.97,67.48,3.63,5.59,7.13,11.46,10.34,17.19,107.72-316.6,407.56-544.34,760.63-544.34M408.11,1382.77h179.4c33.81,0,65.53-1.96,95.29-5.87,29.76-3.91,59.94-13.55,90.82-29.2,26.41-12.71,48.06-30.18,64.97-52.11,16.91-22.08,30.32-45.97,40.24-71.82,3.91-10.06,7.41-20.4,10.34-30.88h.14c-5.17-36.89-7.96-74.61-7.96-112.89,0-48.2,4.19-95.29,12.3-140.98-3.63-15.37-8.38-30.32-14.11-44.85-10.34-25.85-24.31-49.6-41.92-71.26-17.6-21.52-40.38-39.4-68.32-53.65-23.47-12.02-51.42-19.84-83.69-23.33s-64.97-5.31-97.94-5.31h-179.54v642.15M1684.43,258.76c-88.33,0-175.23,13.94-258.31,41.44-80.35,26.6-155.92,65.44-224.61,115.45-67.85,49.4-127.59,108.66-177.54,176.12-43.19,58.33-78.28,121.75-104.58,188.95-16.62-22.71-36.95-42.53-60.6-59.05-19.39-13.47-39.67-24.5-60.31-32.82-20.33-8.19-41.67-14.45-63.44-18.59-21.58-4.11-43.53-6.7-65.26-7.7-19.94-1.05-41.47-1.56-65.81-1.56h-270.77c-9.94,0-18,8.06-18,18v765.52c0,9.94,8.06,18,18,18h270.91c26.91,0,53.83-1.3,79.99-3.86,26.57-2.6,52.62-7.45,77.44-14.42,25.29-7.1,49.58-17.13,72.19-29.81h0c23.07-12.8,44.75-30.01,64.42-51.15,3.8-3.94,7.49-8,11.06-12.15,24.87,71.14,59.45,138.43,103.03,200.46,49.58,70.57,109.65,132.68,178.53,184.61,69.67,52.52,146.69,93.35,228.92,121.37,85.06,28.98,174.17,43.67,264.85,43.67,55.71,0,111.38-5.61,165.49-16.69,52.74-10.79,104.61-26.89,154.18-47.86,48.67-20.58,95.6-46.06,139.51-75.72,43.48-29.38,84.37-63.11,121.53-100.27s70.9-78.05,100.27-121.53c29.66-43.9,55.14-90.84,75.72-139.51,20.97-49.57,37.07-101.44,47.86-154.18,11.07-54.1,16.69-109.78,16.69-165.49,0-60.83-6.7-121.54-19.93-180.44-10.81-48.13-26.04-95.42-45.38-140.93h141.92v687.72c0,9.94,8.06,18,18,18h75.17c9.94,0,18-8.06,18-18v-687.72h43.34c1.9,0,3.73-.29,5.45-.84h185.27c9.94,0,18-8.06,18-18v-61.9c0-9.94-8.06-18-18-18h-537.49c-70.66-118.51-170.58-217.95-289.54-288.01-61.75-36.37-128-64.47-196.91-83.52-71.07-19.64-144.84-29.6-219.28-29.6h0ZM426.11,758.62h161.54c31.79,0,64.09,1.75,96.01,5.2,29.88,3.23,55.92,10.45,77.43,21.46,25.6,13.06,46.65,29.55,62.59,49.02,16.35,20.12,29.51,42.49,39.11,66.49,5.04,12.79,9.23,25.83,12.47,38.83-7.91,45.86-11.92,93.07-11.92,140.38,0,36.68,2.55,74.09,7.57,111.26-2.51,8.58-5.48,17.31-8.86,25.99,0,.03-.02.05-.03.08-9.21,24-21.89,46.64-37.69,67.28h0c-15.21,19.74-34.9,35.51-58.52,46.88-.11.05-.22.11-.33.16-28.7,14.54-57.3,23.77-85.03,27.41-28.85,3.79-60.12,5.71-92.94,5.71h-161.4v-606.15h0Z"/>
  </g>
  <g>
    <polygon class="cls-1" points="1196.4 1117.44 1163.01 1117.44 1163.01 1449.14 1385.72 1449.14 1385.72 1422.45 1196.4 1422.45 1196.4 1117.44"/>
    <path class="cls-1" d="M1412.68,712.4c-9.78-9.78-23.19-17.33-39.96-22.91-16.77-5.59-38.14-8.38-63.99-8.38h-145.73v374.72h37.72v-165.57h85.37c18.58,0,36.89-1.54,55.19-4.61,18.3-3.07,34.65-8.52,49.04-16.35,14.39-7.82,26.13-18.44,35.21-32,9.08-13.55,13.55-30.74,13.55-51.56,0-13.83-1.96-27.11-5.87-39.82-3.91-12.57-10.76-23.75-20.54-33.53ZM1393.54,821.94c-5.45,9.92-12.99,17.74-22.77,23.47-9.78,5.73-21.66,9.64-35.77,11.74-13.97,2.1-29.9,3.07-47.64,3.07h-86.49v-148.8h97.52c35.77,0,61.9,6.01,78.38,18.16l.14-.14c16.49,12.16,24.73,30.04,24.73,53.65,0,16.07-2.79,28.92-8.1,38.84Z"/>
    <rect class="cls-1" x="1447.47" y="1117.44" width="33.39" height="331.69"/>
    <path class="cls-1" d="M1780.42,1055.97h38.84l-152.99-374.72h-42.61l-156.9,374.72h38.84s47.09-117.64,47.09-117.64h181.77l45.97,117.64ZM1565.53,908.15l78.1-196.86,78.1,196.86h-156.21Z"/>
    <polygon class="cls-1" points="1813.95 1407.22 1812.98 1407.22 1608.99 1117.44 1571.26 1117.44 1571.26 1449.14 1604.66 1449.14 1604.66 1159.92 1605.63 1159.92 1808.64 1449.14 1847.35 1449.14 1847.35 1117.44 1813.95 1117.44 1813.95 1407.22"/>
    <path class="cls-1" d="M1912.04,1026.35c25.43,26.41,64.69,39.54,116.39,39.54s90.4-12.99,116.11-38.84c25.71-25.85,38.56-63.29,38.56-112.19v-233.75h-37.72v223.27c0,22.22-2.1,41.5-6.15,57.84-4.05,16.21-10.76,29.9-19.98,40.8-9.22,10.9-21.38,19.14-36.33,24.45-14.95,5.45-33.25,8.1-54.63,8.1-41.08,0-70.84-10.2-89.28-30.74-18.44-20.4-27.66-53.93-27.66-100.46v-223.27h-37.72l.14.14v233.75c0,47.92,12.85,84.95,38.28,111.36Z"/>
    <path class="cls-1" d="M2070.48,1117.44h-37.72l-138.74,331.69h34.37l41.64-104.09h160.82l40.66,104.09h34.37l-135.39-331.69ZM1981.2,1318.36l69.16-174.09,69.16,174.09h-138.32Z"/>
  </g>
</svg>