<?xml version="1.0" encoding="UTF-8"?>
<svg id="Capa_1" xmlns="http://www.w3.org/2000/svg" version="1.1" viewBox="0 0 3840 2160">
  <!-- Generator: Adobe Illustrator 29.5.1, SVG Export Plug-In . SVG Version: 2.1.0 Build 141)  -->
  <path d="M3487.5,1150.4c-12.9-24.6-30-44.7-51.4-60.4-21.4-15.6-45.8-28.1-73.5-37.3-27.7-9.2-56.2-17.3-85.6-24-29.5-6.7-58.4-13.1-86.8-19.1-28.4-6-54.3-13.8-78-23.5-23.6-9.6-43.4-21.9-59.7-36.9-16.4-14.9-26.6-34.9-31-59.8-3.6-20-2.5-39.8,3.4-59.8s16.5-38.1,32-54.5c15.5-16.3,36.3-29.6,62.4-40,26.1-10.3,58.4-15.5,96.7-15.5s49.3,3.2,72.9,9.6c23.6,6.4,44.6,16.3,63,29.9,18.4,13.6,33,30.9,43.7,52.2,10.8,21.2,16.1,46.5,16.1,75.7h71.8c0-31.3-5.6-60.8-16.6-88.6-11-27.7-27.7-52.1-49.7-73.1s-49.9-37.4-83.4-49.6c-33.5-12.1-73.5-18.2-117.8-18.2h0c-44.3,0-83.3,5.7-117.2,17-33.8,11.3-62,26.7-84.5,45.8-22.5,19.3-39.4,41.4-50.9,66.2s-17.2,50.6-17.2,76.8c0,37.7,7,68.7,21,93.3,14.1,24.6,32.3,44.7,54.8,60.4,22.5,15.6,48.3,28.1,77.4,37.3s59,17.3,89.6,24c30.6,6.8,60.5,13.7,89.6,20.8,29.1,7.1,54.9,16.5,77.4,28.2,22.5,11.7,40.8,27,54.8,45.4,14,18.4,21,42.6,21,72.5s-3.9,41.5-11.6,60.8c-7.7,19.3-19.7,36.2-35.9,50.7s-37.2,26.1-63,34.7-56.4,12.8-91.8,12.8-58.5-3.5-85.1-10.2c-26.4-6.7-49.9-17.6-70.1-32.6s-36.9-34.2-49.7-58.1-20.8-53-23.8-87v.3h-73.1c0,42.1,7.1,78.4,21.5,109.4,14.4,31,34.4,57,60.2,78,25.8,21,56.4,36.6,91.8,46.9s73.8,15.5,115,15.5c92.1,0,163.6-19.6,214.5-58.7,50.9-39.1,76.3-94.3,76.3-165.4s-6.4-67.8-19.3-92.3Z"/>
  <path d="M1376.9,729.4h-.1c-16.5-12-42.6-18-78.4-18h-97.5v148.8h86.5c17.7,0,33.7-1,47.6-3.1,14.1-2.1,26-6,35.8-11.7s17.3-13.5,22.8-23.5h0c5.3-9.9,8.1-22.8,8.1-38.8,0-23.6-8.2-41.5-24.7-53.7Z"/>
  <polygon points="1565.5 908.2 1721.7 908.2 1643.6 711.3 1565.5 908.2"/>
  <polygon points="1981.2 1318.4 2119.5 1318.4 2050.4 1144.3 1981.2 1318.4"/>
  <polygon points="1684.4 276.8 1684.4 276.8 1684.4 276.8 1684.4 276.8"/>
  <path d="M2927.6,677.9h-547.8c-138.9-239.8-398.3-401.1-695.4-401.1-353.1,0-652.9,227.7-760.6,544.3-3.2-5.7-6.7-11.6-10.3-17.2-16.9-26.5-38.6-49-65-67.5-18.3-12.7-37.3-23.1-56.7-30.9s-39.5-13.7-60.1-17.6c-20.5-3.9-41.5-6.4-62.7-7.4-21.2-1.1-42.9-1.5-65-1.5h-270.8v765.5h270.9c26.4,0,52.5-1.2,78.2-3.8,25.7-2.5,50.4-7.1,74.3-13.8,23.9-6.7,46.7-16.1,68.3-28.2,21.7-12,41.6-27.9,60.1-47.8,11.5-11.9,21.7-24.6,30.6-38,99.9,330,406.3,570.3,768.9,570.3s803.2-359.6,803.2-803.2-27-236.3-75-339.4h187.6v705.7h75.2v-705.7h61.3v-.8h190.7v-61.9ZM889.3,1192.9h-.1c-2.9,10.5-6.4,20.8-10.3,30.9-9.9,25.8-23.3,49.7-40.2,71.8-16.9,21.9-38.6,39.4-65,52.1-30.9,15.6-61.1,25.3-90.8,29.2-29.8,3.9-61.5,5.9-95.3,5.9h-179.4v-642.1h179.5c33,0,65.7,1.8,97.9,5.3s60.2,11.3,83.7,23.3c27.9,14.2,50.7,32.1,68.3,53.7,17.6,21.7,31.6,45.4,41.9,71.3,5.7,14.5,10.5,29.5,14.1,44.8-8.1,45.7-12.3,92.8-12.3,141s2.8,76,8,112.9ZM1385.7,1449.1h-222.7v-331.7h33.4v305h189.3v26.7ZM1425.5,837.3c-9.1,13.6-20.8,24.2-35.2,32-14.4,7.8-30.7,13.3-49,16.4-18.3,3.1-36.6,4.6-55.2,4.6h-85.4v165.6h-37.7v-374.7h145.7c25.8,0,47.2,2.8,64,8.4,16.8,5.6,30.2,13.1,40,22.9,0,0,0,0,0,0h0s0,0,0,0c9.8,9.8,16.6,21,20.5,33.5,3.9,12.7,5.9,26,5.9,39.8,0,20.8-4.5,38-13.6,51.6ZM1480.9,1449.1h-33.4v-331.7h33.4v331.7ZM1505.6,1056h-38.8l156.9-374.7h42.6l153,374.7h-38.8l-46-117.6h-181.8l-47.1,117.6ZM1847.3,1449.1h-38.7l-203-289.2h-1v289.2h-33.4v-331.7h37.7l204,289.8h1v-289.8h33.4v331.7ZM1873.6,681.1h37.7v223.3c0,46.5,9.2,80.1,27.7,100.5,18.4,20.5,48.2,30.7,89.3,30.7s39.7-2.7,54.6-8.1c15-5.3,27.1-13.5,36.3-24.5,9.2-10.9,15.9-24.6,20-40.8,4-16.3,6.1-35.6,6.1-57.8v-223.3h37.7v233.8c0,48.9-12.9,86.3-38.6,112.2s-64.4,38.8-116.1,38.8-91-13.1-116.4-39.5h0c-25.4-26.4-38.3-63.4-38.3-111.4v-233.8h-.1ZM2171.5,1449.1l-40.7-104.1h-160.8l-41.6,104.1h-34.4l138.7-331.7h37.7l135.4,331.7h-34.4Z"/>
</svg>